<?xml version="1.0" encoding="utf-8"?>
<!-- Generator: Adobe Illustrator 25.0.1, SVG Export Plug-In . SVG Version: 6.00 Build 0)  -->
<svg version="1.2" baseProfile="tiny" id="레이어_1"
	 xmlns="http://www.w3.org/2000/svg" xmlns:xlink="http://www.w3.org/1999/xlink" x="0px" y="0px" viewBox="0 0 2048 1435.95"
	 overflow="visible" xml:space="preserve">
<g>
	<g>
		<path fill="#FFFFFF" d="M1403.149,536.4025c0,209.3972-169.767,379.1491-379.149,379.1491
			c-209.4022,0-379.1491-169.752-379.1491-379.1491c0-209.3871,169.7469-379.139,379.1491-379.139
			C1233.3821,157.2635,1403.149,327.0154,1403.149,536.4025z"/>
		<g>
			<g>
				<g>
					<g>
						<g>
							<g>
								<path fill="#003764" d="M1201.9561,509.9756c-60.3076-40.9862-137.5171-24.2963-178.1136,37.328
									C990.0749,598.8113,938.966,605.22,919.2792,605.22c-64.5726,0-108.6305-45.3887-121.7258-92.3303
									c0,0-0.6402-2.3769-0.8078-2.9141c-5.1476-19.6222-6.4492-28.9411-6.4492-49.7618
									c0-112.1949,115.2029-237.175,280.9855-237.175c169.8407,0,267.043,129.2887,292.1582,201.1638
									c-0.5028-1.351-0.9117-2.5536-1.3207-3.8208c-48.1847-140.5594-181.4528-241.5876-338.4446-241.5876
									c-197.3914,0-357.5145,160.0392-357.5145,357.5983c0,176.5416,127.3308,327.6422,303.9904,327.6422
									c140.8259,0,235.5079-78.9547,278.8761-187.8219C1272.8749,616.6442,1256.0325,546.7018,1201.9561,509.9756z"/>
							</g>
							<g>
								<path fill="#E4032E" d="M1365.6293,431.1445c-20.949-70.1192-118.7773-208.1057-294.3473-208.1057
									c-165.7827,0-280.9855,124.9802-280.9855,237.175c0,20.8208,1.3015,30.1396,6.4492,49.7618
									c-2.1548-8.5939-3.2544-17.1473-3.2544-25.514c0-116.8791,116.9972-197.8408,237.2831-197.8408
									c162.8746,0,294.8745,132.0049,294.8745,294.8108c0,127.6216-73.4624,238.1656-180.1451,291.2261v0.0986
									c137.5767-49.8262,235.819-181.6147,235.819-336.364C1381.3226,499.7652,1376.4122,467.4617,1365.6293,431.1445z"/>
							</g>
						</g>
					</g>
				</g>
			</g>
		</g>
	</g>
	<g>
		<path fill="#575757" d="M243.7081,1050.3657l64.9165,98.9102l-20.7731,13.4558l-44.1434-68.2225l-43.671,69.876l-21.2465-13.4568
			L243.7081,1050.3657z M197.9122,1179.256h164.2981v76.0123h-25.4942v-53.3485H197.9122V1179.256z M336.7161,1051.5468h25.4942
			v115.4346h-25.4942V1051.5468z"/>
		<path fill="#575757" d="M478.8218,1184.923v-16.7606h-81.4409v-22.1913h188.8495v22.1913h-81.6771v16.7606h66.569v68.6918H412.488
			v-68.6918H478.8218z M410.128,1054.1431h163.3553v21.9541h-27.1467v31.8688h27.1467v21.7169H410.128v-21.7169h27.1476v-31.8688
			H410.128V1054.1431z M545.8642,1206.6378H437.747v25.0239h108.1172V1206.6378z M521.549,1076.0972h-59.4878v31.8688h59.4878
			V1076.0972z"/>
		<path fill="#575757" d="M749.3474,1211.1238v22.6617H611.7225v-22.6617H749.3474z M737.0717,1116.2281
			c0,7.7128-1.5754,14.989-4.7211,21.835c-3.1498,6.8461-7.3995,12.8652-12.7481,18.0587
			c-5.1935,5.0385-11.3298,9.052-18.412,12.0405c-7.0822,2.9907-14.6357,4.4839-22.6627,4.4839
			c-8.026,0-15.6207-1.4932-22.7789-4.4839c-7.1633-2.9885-13.3376-7.0021-18.5311-12.0405
			c-5.3527-5.1935-9.6014-11.2126-12.7481-18.0587c-3.1498-6.8459-4.7211-14.1222-4.7211-21.835
			c0-7.7097,1.5713-14.9901,4.7211-21.8361c3.1467-6.8459,7.3954-12.8662,12.7481-18.0587
			c5.1935-5.0343,11.3679-9.0479,18.5311-12.0394c7.1582-2.9875,14.7529-4.485,22.7789-4.485c8.027,0,15.5806,1.4974,22.6627,4.485
			c7.0822,2.9916,13.2185,7.0051,18.412,12.0394c5.3486,5.1925,9.5983,11.2128,12.7481,18.0587
			C735.4963,1101.238,737.0717,1108.5184,737.0717,1116.2281z M712.2861,1116.2281c0-4.563-0.9079-8.8896-2.7154-12.9844
			c-1.8106-4.0905-4.2117-7.7086-7.2003-10.8584c-3.1498-2.9875-6.7679-5.3896-10.8585-7.2003
			c-4.0947-1.8075-8.4214-2.7144-12.9843-2.7144c-4.566,0-8.8928,0.9069-12.9833,2.7144
			c-4.0936,1.8107-7.7117,4.2128-10.8585,7.2003c-2.9906,3.1498-5.3917,6.7679-7.1992,10.8584
			c-1.8116,4.0947-2.7154,8.4214-2.7154,12.9844c0,4.566,0.9037,8.8928,2.7154,12.9823c1.8075,4.0946,4.2086,7.7128,7.1992,10.8595
			c3.1467,2.9906,6.7648,5.3927,10.8585,7.1992c4.0905,1.8116,8.4173,2.7153,12.9833,2.7153c4.5629,0,8.8896-0.9037,12.9843-2.7153
			c4.0905-1.8065,7.7086-4.2086,10.8585-7.1992c2.9885-3.1467,5.3896-6.7649,7.2003-10.8595
			C711.3782,1125.121,712.2861,1120.7942,712.2861,1116.2281z M764.6907,1051.5468h25.4952v205.6091h-25.4952V1051.5468z"/>
		<path fill="#575757" d="M937.0128,1106.7849c0,7.3995-1.4974,14.3636-4.4849,20.8922
			c-2.9917,6.5317-7.0822,12.2377-12.2758,17.1139c-5.1924,4.8802-11.2528,8.7346-18.1758,11.5671
			c-6.9271,2.8324-14.2455,4.2496-21.9542,4.2496c-7.7127,0-15.0301-1.4172-21.9541-4.2496
			c-6.9271-2.8325-12.9833-6.6869-18.1768-11.5671c-5.1935-4.8762-9.2872-10.5822-12.2757-17.1139
			c-2.9907-6.5286-4.4849-13.4927-4.4849-20.8922c0-7.3954,1.4943-14.3595,4.4849-20.8912
			c2.9885-6.5297,7.0822-12.2346,12.2757-17.1139c5.1935-4.8761,11.2497-8.7346,18.1768-11.5681
			c6.924-2.8324,14.2414-4.2487,21.9541-4.2487c7.7087,0,15.027,1.4163,21.9542,4.2487c6.923,2.8335,12.9833,6.692,18.1758,11.5681
			c5.1935,4.8793,9.2841,10.5842,12.2758,17.1139C935.5154,1092.4254,937.0128,1099.3895,937.0128,1106.7849z M832.6729,1179.256
			h161.9391v76.0123h-25.4942v-53.3485H832.6729V1179.256z M912.2272,1107.0211c0-4.4038-0.8668-8.5354-2.5972-12.3938
			c-1.7336-3.8544-4.0125-7.2773-6.846-10.2689c-2.9916-2.8325-6.4146-5.1115-10.2689-6.845
			c-3.8585-1.7295-7.989-2.5963-12.3928-2.5963c-4.4078,0-8.4984,0.8668-12.2757,2.5963c-3.7762,1.7335-7.1623,4.0125-10.1498,6.845
			c-2.8335,2.9916-5.1165,6.4146-6.846,10.2689c-1.7335,3.8584-2.5972,7.99-2.5972,12.3938c0,4.4078,0.8637,8.4984,2.5972,12.2758
			c1.7295,3.7772,4.0125,7.1632,6.846,10.1498c2.9875,2.8324,6.3735,5.1155,10.1498,6.8459
			c3.7773,1.7335,7.8679,2.5963,12.2757,2.5963c4.4038,0,8.5344-0.8628,12.3928-2.5963c3.8543-1.7305,7.2773-4.0135,10.2689-6.8459
			c2.8335-2.9866,5.1124-6.3726,6.846-10.1498C911.3604,1115.5195,912.2272,1111.429,912.2272,1107.0211z M994.6119,1166.9813
			h-25.4942v-115.4346h25.4942v21.4818h29.5077v22.1892h-29.5077v23.1342h29.5077v22.1893h-29.5077V1166.9813z"/>
		<path fill="#575757" d="M1124.6792,1184.923v-16.7606h-81.4409v-22.1913h188.8495v22.1913h-81.6771v16.7606h66.5699v68.6918
			h-158.6342v-68.6918H1124.6792z M1055.9863,1054.1431h163.3553v21.9541h-27.1477v31.8688h27.1477v21.7169h-163.3553v-21.7169
			h27.1466v-31.8688h-27.1466V1054.1431z M1191.7216,1206.6378h-108.1172v25.0239h108.1172V1206.6378z M1167.4075,1076.0972
			h-59.4879v31.8688h59.4879V1076.0972z"/>
		<path fill="#575757" d="M1370.1809,1109.146c0,7.7128-1.5343,14.9531-4.6029,21.7169c-3.0687,6.7689-7.2815,12.748-12.629,17.9417
			c-5.3528,5.0385-11.5311,9.0509-18.5311,12.0394c-7.0042,2.9906-14.5177,4.4839-22.5437,4.4839s-15.5436-1.4933-22.5447-4.4839
			c-7.004-2.9885-13.1815-7.001-18.53-12.0394c-5.3517-5.1936-9.5604-11.1727-12.63-17.9417
			c-3.0687-6.7638-4.603-14.0042-4.603-21.7169c0-7.7097,1.5343-14.9501,4.603-21.7179c3.0696-6.7649,7.2783-12.7472,12.63-17.9407
			c5.3485-5.0343,11.526-9.0479,18.53-12.0396c7.0011-2.9874,14.5187-4.4849,22.5447-4.4849s15.5396,1.4974,22.5437,4.4849
			c7,2.9917,13.1783,7.0052,18.5311,12.0396c5.3475,5.1935,9.5603,11.1758,12.629,17.9407
			C1368.6466,1094.1959,1370.1809,1101.4363,1370.1809,1109.146z M1292.0438,1184.4506v46.03h138.3336v22.6638h-163.8278v-68.6938
			H1292.0438z M1345.6306,1109.3822c0-4.563-0.908-8.8896-2.7144-12.9844c-1.8116-4.0905-4.2128-7.7086-7.2003-10.8584
			c-3.1498-2.9875-6.7279-5.3896-10.7404-7.2003c-4.0135-1.8065-8.3032-2.7133-12.8652-2.7133
			c-4.567,0-8.8938,0.9067-12.9843,2.7133c-4.0936,1.8107-7.7128,4.2128-10.8585,7.2003
			c-2.9916,3.1498-5.3927,6.7679-7.2003,10.8584c-1.8115,4.0947-2.7144,8.4214-2.7144,12.9844c0,4.566,0.9028,8.8527,2.7144,12.8652
			c1.8076,4.0134,4.2087,7.5936,7.2003,10.7404c3.1458,2.9916,6.7649,5.3927,10.8585,7.2002
			c4.0905,1.8107,8.4172,2.7144,12.9843,2.7144c4.562,0,8.8517-0.9037,12.8652-2.7144c4.0125-1.8075,7.5906-4.2086,10.7404-7.2002
			c2.9875-3.1467,5.3887-6.7269,7.2003-10.7404C1344.7227,1118.2349,1345.6306,1113.9482,1345.6306,1109.3822z M1425.1829,1183.2695
			h-25.4922v-131.7228h25.4922v44.8511h29.5077v25.26h-29.5077V1183.2695z"/>
		<path fill="#575757" d="M1473.1005,1079.401v-21.9531h118.033v21.9531h-50.0477l52.1715,76.9572l-19.3568,12.9833
			l-40.6034-61.8479l-40.6013,63.5013l-19.8314-13.2195l51.9332-78.3744H1473.1005z M1487.2649,1253.1444v-68.6938h25.4941v46.03
			h143.0547v22.6638H1487.2649z M1628.4298,1183.2695v-60.6678h-38.2413v-22.6627h38.2413v-48.3922h25.4943v131.7228H1628.4298z"/>
		<path fill="#575757" d="M1736.0695,1073.2648v-21.9542h27.3839v21.9542h49.1028v21.953h-52.1715l56.4192,126.2931l-21.2445,9.4421
			l-45.798-104.3378l-45.3214,105.9913l-21.7189-9.6805l56.4171-127.7083h-54.2933v-21.953H1736.0695z M1843.7153,1155.8856
			h-39.6586v-22.6616h39.6586v-81.6772h25.4941v205.6091h-25.4941V1155.8856z"/>
	</g>
</g>
</svg>
